<svg width="158" height="158" viewBox="0 0 158 158" fill="none" xmlns="http://www.w3.org/2000/svg">
<circle cx="79" cy="79" r="79" fill="#DD8560"/>
<path d="M106.4 133.264L94.368 120.976C91.6373 121.915 88.864 122.555 86.048 122.896C83.232 123.323 80.3733 123.536 77.472 123.536C70.2187 123.536 63.5627 122.299 57.504 119.824C51.5307 117.349 46.368 114.021 42.016 109.84C37.664 105.573 34.2933 100.624 31.904 94.992C29.5147 89.36 28.32 83.3867 28.32 77.072C28.32 72.208 29.2587 67.0453 31.136 61.584C33.0133 56.1227 35.9147 51.1307 39.84 46.608C43.8507 42.0853 48.928 38.3307 55.072 35.344C61.3013 32.3573 68.768 30.864 77.472 30.864C86.2613 30.864 93.7707 32.3573 100 35.344C106.315 38.3307 111.477 42.128 115.488 46.736C119.584 51.2587 122.571 56.2507 124.448 61.712C126.411 67.088 127.392 72.208 127.392 77.072C127.392 80.3147 126.965 83.7707 126.112 87.44C125.259 91.024 123.893 94.608 122.016 98.192C120.139 101.776 117.707 105.232 114.72 108.56C111.733 111.803 108.149 114.661 103.968 117.136L116.128 129.808L106.4 133.264ZM88.736 101.136L98.464 111.248C102.389 108.176 105.419 104.976 107.552 101.648C109.771 98.32 111.392 95.12 112.416 92.048C113.44 88.8907 114.037 86.032 114.208 83.472C114.464 80.8267 114.592 78.6933 114.592 77.072C114.592 71.0133 113.611 65.5093 111.648 60.56C109.771 55.5253 107.168 51.2587 103.84 47.76C100.512 44.176 96.5867 41.4027 92.064 39.44C87.5413 37.4773 82.6773 36.496 77.472 36.496C72.4373 36.496 67.7013 37.4773 63.264 39.44C58.8267 41.4027 54.944 44.176 51.616 47.76C48.3733 51.2587 45.7707 55.5253 43.808 60.56C41.9307 65.5093 40.992 71.0133 40.992 77.072C40.992 83.472 41.9307 89.1893 43.808 94.224C45.7707 99.2587 48.3733 103.568 51.616 107.152C54.8587 110.651 58.6133 113.339 62.88 115.216C67.1467 117.008 71.6267 117.904 76.32 117.904C78.624 117.904 80.8853 117.776 83.104 117.52C85.3227 117.179 87.5413 116.581 89.76 115.728L80.672 106.384L88.736 101.136Z" fill="white"/>
</svg>
